<svg xmlns="http://www.w3.org/2000/svg" viewBox="0 0 749.78 139.7"><defs><style>.cls-1,.cls-2{isolation:isolate;}.cls-2{font-size:100px;fill:#2a6747;font-family:Pacifico-Regular, Pacifico;}.cls-3{letter-spacing:-0.01em;}.cls-4{letter-spacing:-0.01em;}.cls-5{fill:#ff8e46;}.cls-6{fill:#448d55;}</style></defs><g id="Layer_2" data-name="Layer 2"><g id="Layer_1-2" data-name="Layer 1"><g id="Group_6" data-name="Group 6"><g id="Gritty_Gardens" data-name="Gritty Gardens" class="cls-1"><text class="cls-2" transform="translate(0 94)"><tspan class="cls-3">G</tspan><tspan x="80" y="0">ritty </tspan><tspan class="cls-4" x="295.1" y="0">G</tspan><tspan x="375.2" y="0">ardens</tspan></text></g><g id="Group_5" data-name="Group 5"><path id="Path_6" data-name="Path 6" class="cls-5" d="M683.31,56.41s-10.87,15-13.27,18.17,1.21,3.74,5.66,6.8c6.63,4.57,4.13,9.74,4.13,9.74s-3.53-5.55-10-6.15c-5.45-.5-7.06,3.21-7.06,3.21l-18.5,34.92s-5,8.16-2.62,9.9,9.14-1.74,9.14-1.74S675.31,118.56,679,116c7.35-5.22-3.1-14.2-3.1-14.2,2.4.11,5.66,2.07,8.82,5.55a8.38,8.38,0,0,0,7.83,2.28s5.82-3.37,8.32-5.11,4.35-2.61,4.79-5.87-3.37-9.46-3.37-9.46c5.54,0,8.81,7.28,8.81,7.28l7.61-5.32c7.3-6.86-7.39-23.61-7.39-23.61l-3.8-3.58C690.6,49.13,683.31,56.41,683.31,56.41Z"/><path id="Path_7" data-name="Path 7" d="M744.26,61.12l-.68-.25A1.86,1.86,0,0,0,744.26,61.12Z"/><path id="Path_8" data-name="Path 8" d="M734,73l0-.11A.7.7,0,0,0,734,73Z"/><path id="Path_9" data-name="Path 9" class="cls-6" d="M749.78,65.12c0-1.73-3.92-3.39-5.52-4a1.86,1.86,0,0,1-.68-.25l.68.25c.53.08,1.14-.15,1-1.77-.33-2.72-8.81-2.93-8.81-2.93-.77-5.23-15.23-.11-15.23-.11,2.4-4,9.57-5.33,12.51-6.53s1.74-2.5,1.74-2.5,6.42-.43,7.51-2.28-1.42-3.82-1.42-3.82,4.46.33,5.33-2.28a2.29,2.29,0,0,0-1.41-3.26s3.81-4.57-.43-6.75-5.77,1.42-5.77,1.42-.65-3.27-3.37-1.85-2.18,5.44-2.18,5.44c-4.79-2.4-4.9,5.22-4.9,5.22-2.94-1.31-4.24,1.85-4.79,5.11s-5.87,10.12-5.87,10.12c3-10.77,1.2-16.32,1.2-16.32-.87-11.31-5.65-7.62-5.65-7.62.21-3.7-1-4.46-2.83-4.46h-.22a1.7,1.7,0,0,0-1.53,1.84h0s-.9-4.56-3.26-3.7c-2.07.77,0,2.83,0,2.83s-4.24-3.7-6.2.11c-1.76,3.42,3.92,7.94,3.92,7.94s-7-.43-6.42,2.94,4.68,3.15,4.68,3.15c-3.27,4.14,4,4.57,4,4.57-2.28,3.27,3.26,3.16,3.26,3.16-1.3,1.52.87,2.82.87,2.82a10.38,10.38,0,0,1-2.5,12.3l3.8,3.59s2.18-2.29,7.51-3.49,6.75,1.64,6.75,1.64c2.39,6.41,4.46,1.85,4.46,1.85s-1.42,5.12,1.2,6c2.17.72,2.68-.2,2.79-.54,0-.07,0-.12,0-.12s0,0,0,.12c-.2.68-1.08,4.44,3,4.44,4.46,0,2.07-8.48,2.07-8.48s2.5,6.85,6.41,6.42,1.85-6.53,1.85-6.53,1.53,2.18,2.07.22c.46-1.66-1.42-2.85-2-3.17l-.17-.09.17.09C747.92,66.15,749.78,67,749.78,65.12Z"/><path id="Path_10" data-name="Path 10" d="M747.34,65.86l-.17-.09Z"/></g></g></g></g></svg>